<?xml version="1.0" encoding="UTF-8" standalone="no"?>
<svg
   xmlns:dc="http://purl.org/dc/elements/1.1/"
   xmlns:cc="http://creativecommons.org/ns#"
   xmlns:rdf="http://www.w3.org/1999/02/22-rdf-syntax-ns#"
   xmlns:svg="http://www.w3.org/2000/svg"
   xmlns="http://www.w3.org/2000/svg"
   viewBox="0 0 175.57935 56.945621"
   height="56.945621"
   width="175.57935"
   id="svg2"
   version="1.1">
  <metadata
     id="metadata8">
    <rdf:RDF>
      <cc:Work
         rdf:about="">
        <dc:format>image/svg+xml</dc:format>
        <dc:type
           rdf:resource="http://purl.org/dc/dcmitype/StillImage" />
        <dc:title></dc:title>
      </cc:Work>
    </rdf:RDF>
  </metadata>
  <defs
     id="defs6" />
  <path
     id="path3701"
     d="M 21.867733,56.110673 C 14.405144,54.379125 10.732815,52.269839 6.4311653,47.244329 -2.723461,36.549207 -2.0015402,17.573359 7.9389823,7.611032 13.794445,1.7427244 18.35209,-0.04251114 27.367733,7.6446107e-4 32.916879,0.02740066 36.348179,0.56029196 38.568073,1.740211 c 3.913905,2.0803203 4.29966,2.0983577 4.29966,0.201046 0,-1.17948724 1.388889,-1.50000004 6.5,-1.50000004 h 6.5 v 10.50000004 10.5 h -7 c -3.85,0 -7,-0.415474 -7,-0.923275 0,-0.507801 -1.165002,-2.307801 -2.588894,-4 -2.044755,-2.430053 -3.378361,-3.076725 -6.345012,-3.076725 -4.549749,0 -6.447771,1.879188 -8.080181,8 -2.090588,7.838776 0.461445,19.806482 4.558889,21.378819 5.659599,2.171791 11.846847,-1.619106 13.042201,-7.990895 0.349569,-1.863358 0.784753,-3.387924 0.967078,-3.387924 1.648022,0 14.445919,5.446604 14.445919,6.147979 0,4.776615 -7.646026,14.365498 -13.530391,16.968466 -5.45259,2.411971 -15.711667,3.12102 -22.469609,1.552971 z m 43,-6.669416 c 0,-6.8 0.07143,-7 2.5,-7 h 2.5 v -14 -14 h -2.5 c -2.432105,0 -2.5,-0.192969 -2.5,-7.105466 V 0.23032516 l 23.25,0.360062 c 22.424287,0.3472746 23.427517,0.44868494 28.248547,2.85546594 6.83288,3.4111439 9.50145,7.6545029 9.50145,15.1084909 0,5.131409 -0.38136,6.251666 -3.23438,9.501072 -4.47236,5.093745 -8.62411,6.540434 -20.51562,7.148736 l -10.249997,0.524331 v 3.356387 c 0,2.913479 0.329899,3.356387 2.5,3.356387 2.42857,0 2.5,0.2 2.5,7 v 7 h -16 -16 z M 102.36718,21.441711 c 3.97553,-3.299392 0.40828,-8.000454 -6.070877,-8.000454 h -4.42857 v 5.130052 5.130053 l 4.49945,-0.507154 c 2.4747,-0.278934 5.174697,-1.067558 5.999997,-1.752497 z m 29.50055,26.047263 v -9.047717 l 6.25,0.0063 c 5.8758,0.0059 6.35076,0.18341 7.93289,2.964104 2.52727,4.441839 8.97357,5.391373 10.45167,1.539519 0.91441,-2.382923 -1.462,-4.46426 -9.3982,-8.231261 -9.29032,-4.409744 -12.59451,-7.217271 -14.70667,-12.496094 -3.10624,-7.763262 0.13107,-16.4873226 7.53977,-20.3185081 3.66658,-1.89606564 13.62508,-1.87183694 17.29485,0.042078 3.53535,1.8438392 3.63569,1.8436692 3.63569,-0.00614 0,-1.17948724 1.38889,-1.50000004 6.5,-1.50000004 h 6.5 V 8.4412549 16.441255 h -6.09879 c -5.48701,0 -6.37991,-0.300937 -8.90121,-3 -4.29161,-4.5941891 -11.35083,-3.6608811 -9.45456,1.25 0.26547,0.6875 4.73526,3.41592 9.93286,6.063156 5.19761,2.647236 10.5793,6.155016 11.95931,7.795066 7.16811,8.518815 5.05557,21.048717 -4.35854,25.851441 -4.82935,2.463751 -13.52935,2.71469 -18.73331,0.540337 -4.34351,-1.814832 -4.40953,-1.818862 -4.09576,-0.25 0.17383,0.869174 -1.65413,1.340703 -6,1.547717 l -6.25,0.297718 z"
     style="fill:#040404" />
</svg>
